<?xml version="1.0" encoding="utf-8"?>
<!-- Generator: Adobe Illustrator 16.0.4, SVG Export Plug-In . SVG Version: 6.00 Build 0)  -->
<!DOCTYPE svg PUBLIC "-//W3C//DTD SVG 1.1//EN" "http://www.w3.org/Graphics/SVG/1.1/DTD/svg11.dtd">
<svg version="1.1" id="圖層_1" xmlns="http://www.w3.org/2000/svg" xmlns:xlink="http://www.w3.org/1999/xlink" x="0px" y="0px"
	 width="567.192px" height="132.852px" viewBox="0 0 567.192 132.852" enable-background="new 0 0 567.192 132.852"
	 xml:space="preserve">
<g>
	<path fill="#221E1F" d="M253.22,24.175c0-9.351-7.623-16.959-16.981-16.959c-9.36,0-16.975,7.608-16.975,16.959
		c0,3.329,0.973,6.533,2.775,9.272L208.706,81.42c-0.407-0.363-0.857-0.669-1.33-0.938c0.567-1.678,0.567-3.48-0.073-5.152
		l-0.581-1.514c-0.646-1.689-1.875-3.034-3.394-3.898c0.567-1.672,0.574-3.473-0.064-5.152l-0.582-1.512
		c-0.647-1.686-1.875-3.033-3.394-3.891c0.567-1.683,0.567-3.484-0.08-5.163l-0.574-1.508c-0.341-0.908-0.865-1.726-1.497-2.416
		c0.276-2.94-0.647-5.872-2.594-8.157c-1.293-2.525-3.931-4.17-6.81-4.17c-0.704,0-1.409,0.098-2.085,0.294
		c-4.687,0.211-8.684,3.299-10.049,7.812l-10.748,35.59l-13.145-48.961c-1.258-4.673-5.516-8.022-10.34-8.16h-0.32
		c-4.768,0-8.979,3.047-10.464,7.585l-15.986,48.802h-1.754l-5.338-42.764c-0.436-3.523-3.063-6.427-6.554-7.223
		c-0.611-0.133-1.229-0.203-1.852-0.203c-2.907,0-5.578,1.454-7.142,3.894l-2.988,4.655c0.021-0.254,0.078-0.502,0.078-0.76
		c0-4.676-3.808-8.479-8.483-8.479H38.32c-3.797,0-7.157,2.554-8.174,6.209L8.288,114.947c-0.606,2.18-0.327,4.469,0.785,6.438
		c1.117,1.971,2.932,3.391,5.11,3.994c0.743,0.205,1.505,0.316,2.276,0.316c0,0,0,0,0.004,0c3.787-0.01,7.144-2.562,8.162-6.213
		l11.657-41.968h22.239c4.678,0,8.478-3.805,8.478-8.476c0-4.677-3.8-8.48-8.478-8.48H40.996l3.766-13.566h35.807
		c1.533,0,2.942-0.443,4.185-1.155l-42.53,66.226c-1.225,1.903-1.633,4.171-1.148,6.391c0.476,2.213,1.797,4.109,3.703,5.33
		c1.37,0.879,2.952,1.344,4.579,1.344c2.897,0,5.568-1.453,7.136-3.898L72.29,96.632c1.772,3.739,5.578,6.33,9.975,6.33h16.232
		l1.841,14.739c0.53,4.236,4.139,7.434,8.397,7.434c0.362,0,0.73-0.029,1.068-0.066c4.636-0.58,7.942-4.824,7.368-9.463
		l-1.577-12.644h6.99c4.774,0,8.985-3.048,10.471-7.597l6.954-21.211l13.574,50.533c1.271,4.727,5.58,8.084,10.55,8.164h0.095
		c4.898,0,9.134-3.154,10.551-7.838l15.804-52.316c0.53,0.562,1.141,1.043,1.81,1.424c-0.567,1.675-0.567,3.478,0.072,5.156
		l0.582,1.51c0.647,1.686,1.875,3.035,3.393,3.896c-0.544,1.619-0.588,3.429,0.073,5.154l0.574,1.508
		c0.639,1.686,1.882,3.037,3.401,3.898c-0.553,1.624-0.588,3.427,0.065,5.148l0.574,1.512c0.306,0.799,0.742,1.525,1.279,2.162
		l-0.588,2.125c-1.562,5.632,1.744,11.48,7.375,13.047c0.922,0.258,1.881,0.389,2.841,0.389c4.738,0,8.938-3.193,10.208-7.76
		l19.962-71.814C248.75,37.625,253.22,31.402,253.22,24.175z M82.39,80.912l11.19-17.425l2.17,17.425H82.39z"/>
	<path fill="#221E1F" d="M549.077,48.958c-1.395-0.178-2.797-0.257-4.156-0.257c-5.807,0-10.674,1.537-14.605,3.901
		c-1.518-2.344-4.135-3.909-7.129-3.909h-40.697c-1.57,0-3.031,0.457-4.289,1.206c-0.812-0.604-1.721-1.09-2.752-1.381
		c-0.75-0.214-1.533-0.32-2.311-0.32c-3.787,0-7.137,2.544-8.162,6.185l-7.949,28.229h-18.223l6.801-24.131
		c1.271-4.501-1.359-9.192-5.857-10.464c-0.748-0.21-1.525-0.319-2.311-0.319c-3.777,0-7.127,2.543-8.152,6.176l-8.734,30.996
		c-0.139-0.209-0.262-0.412-0.406-0.607c-1.592-2.1-4.121-3.35-6.758-3.35h-20.768c-4.672,0-8.48,3.807-8.48,8.479
		c0,4.68,3.809,8.479,8.48,8.479h4.119c-5.123,5.393-11.719,8.857-17.643,8.857c-3.67,0-6.502-1.264-8.414-3.756
		c-2.602-3.387-3.205-8.676-1.648-14.49c3.283-12.262,14.982-22.627,25.547-22.627c4.877,0,8.314,2.26,9.955,6.543
		c1.242,3.264,4.426,5.454,7.912,5.454c1.041,0,2.066-0.188,3.025-0.56c2.121-0.807,3.793-2.391,4.723-4.461
		c0.922-2.071,0.98-4.371,0.174-6.49c-4.17-10.921-13.812-17.446-25.789-17.446c-12.164,0-24.385,6.903-32.756,17.352l2.043-7.266
		c1.27-4.505-1.354-9.196-5.842-10.464c-0.764-0.214-1.543-0.32-2.32-0.32c-3.777,0-7.127,2.536-8.16,6.18l-4.104,14.554
		c-0.838-12.253-9.717-18.931-18.021-19.967c-1.41-0.177-2.826-0.272-4.193-0.272c-11.248,0-18.973,5.769-23.201,12.196l0.938-3.483
		c1.221-4.513-1.453-9.178-5.98-10.406c-0.711-0.189-1.453-0.287-2.203-0.287c-3.822,0-7.186,2.573-8.18,6.26l-8.729,32.226
		l-11.945-30.875c-1.25-3.249-4.455-5.42-7.964-5.42c-0.079,0-0.268,0-0.348,0.003c-3.641,0.178-6.766,2.656-7.753,6.166
		l-15.79,55.894c-1.264,4.497,1.358,9.19,5.872,10.47c0.748,0.207,1.525,0.312,2.296,0.312c3.778,0,7.128-2.535,8.16-6.172
		l8.88-31.445l12.12,31.326c1.271,3.289,4.366,5.412,7.884,5.412c0.16,0,0.32-0.004,0.457-0.01c3.67-0.193,6.787-2.705,7.746-6.254
		l2.936-10.849c0.988,11.575,8.648,17.056,13.531,18.478c2.898,1.033,6.328,1.6,9.678,1.6c5.203,0,14.156-1.41,21.131-9.65
		c-0.842,4.289,1.701,8.588,5.965,9.789c0.75,0.217,1.533,0.326,2.312,0.326c3.785,0,7.135-2.543,8.16-6.184l4.723-16.734
		c0.893,4.422,2.674,8.48,5.312,11.916c5.137,6.693,12.904,10.385,21.863,10.385c6.584,0,13.32-2.006,19.51-5.682
		c0.988,2.256,2.943,4.076,5.508,4.783c0.742,0.211,1.506,0.316,2.268,0.316c2.842,0,5.428-1.432,6.984-3.684
		c1.053,1.91,2.84,3.416,5.094,4.055c0.756,0.211,1.533,0.32,2.316,0.32c3.779,0,7.137-2.539,8.16-6.177l5.086-18.05h18.225
		l-3.93,13.951c-1.271,4.498,1.357,9.191,5.842,10.457c0.756,0.211,1.533,0.322,2.316,0.322c3.781,0,7.137-2.539,8.162-6.18
		l14.945-53.015c0.908,0.333,1.891,0.544,2.914,0.544h10.26l-13.652,46.851c-0.633,2.176-0.385,4.472,0.705,6.456
		c1.09,1.982,2.891,3.422,5.057,4.062c0.771,0.225,1.576,0.332,2.377,0.332c3.75,0,7.092-2.506,8.146-6.102l15.033-51.6h8.807
		c-1.955,5.051-1.867,10.602,0.312,15.369c1.707,3.728,5.406,8.694,13.348,11.168l1.432,0.44c2.303,0.7,9.322,2.848,10.131,4.522
		c0,0.014,0.166,1.043-1.279,3.633c-2.27,4.084-5.473,6.064-9.781,6.064c-2.396,0-4.223-0.637-4.223-0.637
		c-0.209-0.087-0.436-0.159-0.66-0.217c-0.873-0.451-2.18-2.635-1.285-7.949c0.375-2.234-0.139-4.487-1.447-6.329
		c-1.314-1.847-3.27-3.074-5.473-3.444c-0.486-0.084-0.973-0.131-1.467-0.131c-4.143,0-7.645,2.979-8.334,7.078
		c-2.957,17.525,7.164,25.279,13.115,27.018c2.906,1.029,6.336,1.6,9.68,1.6c6.154,0,17.52-1.926,24.691-14.802
		c3.668-6.586,4.41-12.701,2.209-18.176c-3.707-9.192-14.076-12.354-20.922-14.446l-1.352-0.418
		c-0.885-0.272-2.447-0.904-2.965-2.023c-0.283-0.64-0.238-1.525,0.125-2.369c0.428-0.988,2.936-5.939,9.918-5.939
		c0.641,0,1.309,0.039,1.977,0.127c2.994,0.378,3.248,4.029,3.256,5.119c0,4.65,3.785,8.454,8.48,8.477
		c4.65,0,8.449-3.786,8.479-8.441C567.251,57.405,557.841,50.059,549.077,48.958z M341.274,76.592l-4.361,15.471
		c-0.129-0.397-0.24-0.807-0.398-1.195c-3.699-9.204-14.068-12.36-20.906-14.453l-1.365-0.422c-0.879-0.276-2.441-0.904-2.957-2.027
		c-0.291-0.637-0.248-1.521,0.123-2.369c0.428-0.988,2.936-5.937,9.91-5.937c0.641,0,1.309,0.044,1.992,0.132
		c2.979,0.37,3.24,4.031,3.248,5.115c0,4.657,3.793,8.462,8.479,8.479C337.511,79.386,339.726,78.295,341.274,76.592z
		 M294.231,74.858c0.203,2.126,0.74,4.211,1.627,6.162c1.707,3.731,5.408,8.69,13.357,11.169l1.424,0.443
		c2.303,0.705,9.328,2.848,10.135,4.525c0,0.009,0.16,1.04-1.279,3.627c-2.266,4.083-5.471,6.064-9.787,6.064
		c-2.396,0-4.221-0.645-4.221-0.645c-0.219-0.078-0.438-0.148-0.654-0.21c-0.871-0.451-2.182-2.63-1.287-7.952
		c0.779-4.611-2.34-8.992-6.939-9.77c-0.473-0.081-0.951-0.121-1.432-0.121c-1.859,0-3.574,0.625-4.984,1.66L294.231,74.858z"/>
	<path fill="#221E1F" d="M196.244,89.031c-3.138,0-6.001-1.969-7.128-4.904l-0.574-1.508c-1.503-3.932,0.473-8.35,4.404-9.853
		c0.887-0.338,1.795-0.509,2.725-0.509c3.147,0,6.01,1.973,7.128,4.904l0.574,1.512c1.505,3.931-0.465,8.35-4.396,9.854
		C198.097,88.868,197.182,89.031,196.244,89.031z"/>
	<path fill="#FFFFFF" d="M198.62,80.49l-0.574-1.508c-0.502-1.312-1.969-1.967-3.285-1.468c-1.308,0.505-1.969,1.976-1.467,3.288
		l0.581,1.508c0.385,1.014,1.344,1.631,2.368,1.631c0.306,0,0.611-0.051,0.908-0.159C198.468,83.28,199.121,81.805,198.62,80.49z"/>
	<path fill="#221E1F" d="M188.156,67.912c-3.139,0-6.001-1.969-7.121-4.904l-0.582-1.505c-0.726-1.907-0.668-3.982,0.161-5.842
		c0.828-1.86,2.332-3.284,4.236-4.015c0.872-0.33,1.795-0.508,2.732-0.508c3.14,0,6.003,1.969,7.128,4.904l0.574,1.505
		c0.726,1.908,0.675,3.985-0.152,5.846c-0.836,1.857-2.34,3.283-4.244,4.019C190.031,67.738,189.108,67.912,188.156,67.912z"/>
	<path fill="#FFFFFF" d="M190.54,59.375l-0.588-1.513c-0.495-1.314-1.969-1.973-3.285-1.467c-1.308,0.5-1.962,1.973-1.46,3.284
		l0.574,1.512c0.392,1.014,1.351,1.635,2.375,1.635c0.306,0,0.61-0.055,0.908-0.168C190.38,62.15,191.033,60.682,190.54,59.375z"/>
	<path fill="#221E1F" d="M156.17,125.635c-4.97-0.078-9.286-3.432-10.559-8.166l-13.573-50.533l-6.948,21.221
		c-1.489,4.537-5.695,7.59-10.477,7.59h-6.998l1.577,12.64c0.581,4.644-2.725,8.888-7.361,9.468
		c-0.337,0.041-0.704,0.064-1.067,0.064c-4.258,0-7.862-3.196-8.396-7.432l-1.836-14.74H74.294c-4.4,0-8.208-2.59-9.971-6.332
		l-15.801,24.604c-1.568,2.44-4.237,3.9-7.136,3.9c-1.628,0-3.21-0.465-4.58-1.343c-1.906-1.229-3.223-3.117-3.706-5.333
		c-0.479-2.217-0.073-4.484,1.153-6.389l49.736-77.444c1.564-2.441,4.235-3.894,7.136-3.894c0.624,0,1.249,0.065,1.856,0.2
		c3.494,0.795,6.118,3.698,6.561,7.226l5.33,42.758h1.755l15.986-48.796c1.486-4.542,5.689-7.594,10.462-7.594l0.32,0.007
		c4.825,0.131,9.083,3.488,10.333,8.161l13.152,48.957l10.754-35.594c1.366-4.514,5.354-7.594,10.041-7.808
		c0.684-0.193,1.381-0.294,2.086-0.294c2.877,0,5.515,1.649,6.809,4.171c1.948,2.284,2.87,5.21,2.594,8.152
		c0.632,0.698,1.156,1.516,1.498,2.42l0.581,1.511c0.733,1.904,0.675,3.975-0.152,5.835c-0.836,1.867-2.34,3.288-4.244,4.018
		c-0.56,0.219-1.148,0.371-1.752,0.443L166.822,117.8c-1.416,4.687-5.66,7.839-10.557,7.839h-0.095V125.635L156.17,125.635z
		 M87.779,73.699l-2.172-17.428L74.42,73.699H87.779z"/>
	<path fill="#FFFFFF" d="M186.493,48.809l-0.583-1.511c-0.421-1.09-1.518-1.722-2.63-1.613l0.589-1.941
		c0.668-2.219-0.043-4.508-1.621-6.008l-0.11-0.276c-0.5-1.316-1.969-1.962-3.284-1.468c-0.087,0.037-0.175,0.083-0.254,0.131
		c-2.704-0.189-5.283,1.486-6.097,4.193l-15.906,52.663l-17.781-66.183c-0.679-2.536-2.946-4.326-5.573-4.393
		c-2.604-0.079-4.978,1.592-5.802,4.084l-17.124,52.295h-9.941l-5.883-47.209c-0.176-1.417-1.223-2.576-2.614-2.893
		c-1.397-0.312-2.836,0.276-3.604,1.476l-49.738,77.446c-1.015,1.576-0.556,3.676,1.021,4.686c0.569,0.364,1.203,0.539,1.828,0.539
		c1.117,0,2.21-0.546,2.861-1.562l44.675-69.561l4.625,37.08H74.296c-3.279,0-5.935,2.656-5.935,5.937
		c0,3.274,2.654,5.937,5.935,5.937h20.729l2.396,19.198c0.229,1.859,1.926,3.189,3.787,2.943c1.859-0.233,3.175-1.926,2.942-3.786
		l-2.289-18.355h12.753c2.568,0,4.839-1.649,5.642-4.091l12.263-37.45l18.013,67.032c0.683,2.561,2.986,4.352,5.639,4.396
		c0.037,0,0.065,0,0.087,0c2.615,0,4.927-1.715,5.69-4.223l19.822-65.644c0.399,0.981,1.344,1.577,2.347,1.577
		c0.305,0,0.609-0.047,0.908-0.167C186.333,51.592,186.994,50.124,186.493,48.809z"/>
	<path fill="#221E1F" d="M192.204,78.474c-3.146,0-6.003-1.969-7.128-4.901l-0.574-1.511c-0.734-1.904-0.675-3.981,0.16-5.835
		c0.828-1.867,2.34-3.292,4.237-4.019c0.865-0.335,1.787-0.509,2.732-0.509c3.131,0,6.002,1.973,7.122,4.905l0.581,1.507
		c0.726,1.904,0.668,3.982-0.161,5.839c-0.828,1.86-2.332,3.288-4.236,4.019C194.071,78.303,193.148,78.474,192.204,78.474z"/>
	<path fill="#FFFFFF" d="M194.572,69.932l-0.574-1.511c-0.5-1.308-1.976-1.973-3.283-1.465c-1.309,0.506-1.971,1.976-1.469,3.285
		l0.582,1.507c0.385,1.019,1.351,1.635,2.376,1.635c0.298,0,0.61-0.049,0.908-0.166C194.427,72.716,195.082,71.244,194.572,69.932z"
		/>
	<path fill="#221E1F" d="M204.063,112.411c-0.952,0-1.911-0.124-2.842-0.392c-5.631-1.562-8.938-7.42-7.375-13.051l0.588-2.121
		c-0.53-0.637-0.966-1.36-1.271-2.158l-0.581-1.512c-1.498-3.932,0.471-8.35,4.403-9.854c0.429-0.167,0.872-0.287,1.314-0.379
		l15.769-56.713c-1.81-2.739-2.776-5.951-2.776-9.271C211.293,7.608,218.901,0,228.267,0c9.367,0,16.981,7.608,16.981,16.961
		c0,7.229-4.476,13.45-11.016,15.873l-19.96,71.814C213,109.221,208.801,112.411,204.063,112.411z"/>
	<path fill="#FFFFFF" d="M240.162,16.961c0-6.544-5.334-11.871-11.896-11.871c-6.555,0-11.888,5.327-11.888,11.871
		c0,3.161,1.25,6.031,3.277,8.159l-17.788,63.987c-0.625-1.017-1.904-1.475-3.066-1.031c-1.309,0.502-1.962,1.973-1.468,3.284
		l0.581,1.513c0.385,1.01,1.351,1.631,2.376,1.631c0.028,0,0.051-0.011,0.081-0.011l-1.629,5.842
		c-0.814,2.929,0.901,5.972,3.837,6.787c0.494,0.138,0.988,0.203,1.482,0.203c2.412,0,4.628-1.599,5.303-4.041l20.739-74.611
		C235.795,27.791,240.162,22.878,240.162,16.961z"/>
	<path fill="#221E1F" d="M230.251,114.536c-0.771,0-1.533-0.104-2.296-0.315c-4.512-1.279-7.135-5.973-5.865-10.471l15.783-55.894
		c0.988-3.509,4.113-5.987,7.76-6.162c0.087-0.003,0.262-0.007,0.341-0.007c3.518,0,6.722,2.173,7.972,5.413l11.945,30.884
		l8.729-32.228c0.996-3.691,4.367-6.255,8.182-6.255c0.748,0,1.482,0.093,2.201,0.282c4.527,1.225,7.201,5.894,5.98,10.406
		l-15.479,57.197c-0.965,3.549-4.068,6.061-7.744,6.253c-0.146,0.007-0.307,0.015-0.459,0.015c-3.518,0-6.619-2.129-7.892-5.421
		l-12.113-31.325l-8.887,31.455C237.379,111.996,234.029,114.536,230.251,114.536z"/>
	<path fill="#FFFFFF" d="M283.681,44.703c-1.795-0.479-3.67,0.581-4.156,2.383l-12.775,47.217l-17.555-45.357
		c-0.516-1.367-1.868-2.208-3.321-2.168c-1.453,0.068-2.703,1.064-3.103,2.466l-15.79,55.893c-0.508,1.802,0.539,3.673,2.34,4.181
		c0.312,0.092,0.625,0.129,0.931,0.129c1.482,0,2.841-0.975,3.262-2.463l13.028-46.117l17.614,45.539
		c0.523,1.361,1.839,2.24,3.343,2.158c1.468-0.073,2.712-1.087,3.097-2.496l15.477-57.202
		C286.558,47.054,285.497,45.198,283.681,44.703z"/>
	<path fill="#221E1F" d="M8.484,118.486c-0.763,0-1.526-0.105-2.272-0.316c-2.176-0.6-3.993-2.023-5.11-3.992
		c-1.116-1.97-1.395-4.259-0.789-6.446l21.864-78.698c1.018-3.66,4.376-6.209,8.169-6.209h42.25c4.676,0,8.479,3.808,8.479,8.479
		c0,4.676-3.803,8.476-8.479,8.476H36.794l-3.771,13.57h17.53c4.674,0,8.476,3.804,8.476,8.48c0,4.673-3.802,8.479-8.476,8.479
		H28.312l-11.659,41.964c-1.014,3.655-4.375,6.213-8.163,6.213C8.491,118.486,8.488,118.486,8.484,118.486z"/>
	<path fill="#FFFFFF" d="M50.553,65.224c1.869,0,3.39-1.519,3.39-3.394s-1.521-3.387-3.39-3.387H26.81
		c-0.169,0-0.329,0.022-0.492,0.044l6.607-23.79h39.672c1.875,0,3.393-1.519,3.393-3.394c0-1.871-1.518-3.394-3.393-3.394h-42.25
		c-1.524,0-2.861,1.018-3.27,2.485l-21.86,78.702c-0.503,1.807,0.552,3.673,2.357,4.172c0.305,0.087,0.609,0.131,0.908,0.131
		c1.488,0,2.854-0.989,3.269-2.494l12.912-46.471c0.587,0.479,1.328,0.788,2.147,0.788H50.553L50.553,65.224z"/>
	<path fill="#221E1F" d="M301.644,116.619c-3.342,0-6.773-0.567-9.672-1.596c-5.959-1.736-16.072-9.494-13.123-27.02
		c0.691-4.092,4.215-7.07,8.363-7.07c0.473,0,0.945,0.043,1.418,0.127c4.605,0.773,7.723,5.156,6.945,9.77
		c-0.893,5.318,0.414,7.496,1.287,7.949c0.217,0.064,0.436,0.131,0.652,0.211c0,0.004,1.824,0.646,4.223,0.646
		c4.316,0,7.52-1.982,9.789-6.067c1.445-2.587,1.277-3.618,1.277-3.626c-0.807-1.678-7.826-3.821-10.137-4.526l-1.424-0.443
		c-7.949-2.474-11.648-7.441-13.355-11.169c-2.297-5.028-2.297-10.936,0-16.2c3.4-7.793,11.846-16.128,25.359-16.128
		c1.365,0,2.783,0.091,4.193,0.27c8.756,1.096,18.152,8.436,18.107,21.973c-0.021,4.657-3.822,8.446-8.479,8.446
		c-4.695-0.014-8.48-3.818-8.48-8.479c-0.008-1.079-0.27-4.741-3.256-5.115c-0.676-0.087-1.352-0.128-1.984-0.128
		c-6.975,0-9.482,4.949-9.918,5.937c-0.363,0.844-0.414,1.73-0.123,2.37c0.516,1.118,2.078,1.75,2.965,2.026l1.357,0.422
		c6.846,2.089,17.207,5.254,20.914,14.446c2.201,5.478,1.467,11.589-2.211,18.173C319.171,114.701,307.798,116.619,301.644,116.619z
		"/>
	<path fill="#FFFFFF" d="M330.462,63.705c0.014-5.262-2.82-15.551-13.654-16.909c-13.064-1.642-21.232,5.9-24.254,12.848
		c-1.723,3.945-1.738,8.335-0.037,12.047c1.271,2.791,4.076,6.511,10.223,8.422l1.41,0.436c4.979,1.519,11.801,3.604,13.387,7.54
		c0.797,1.979,0.273,4.66-1.57,7.952c-6.918,12.44-19.693,7.913-20.217,7.72c-0.129-0.047-0.268-0.09-0.398-0.126
		c-0.066-0.015-6.795-1.788-4.789-13.654c0.305-1.845-0.938-3.597-2.783-3.905c-1.846-0.316-3.604,0.927-3.908,2.776
		c-2.391,14.187,5.152,20.103,9.656,21.322c2.094,0.763,4.941,1.36,8.117,1.36c6.766,0,14.969-2.693,20.242-12.188
		c2.895-5.18,3.533-9.82,1.941-13.798c-2.799-6.936-11.4-9.569-17.693-11.484l-1.381-0.425c-2.965-0.932-5.064-2.576-6.074-4.768
		c-0.887-1.962-0.865-4.338,0.086-6.521c2.094-4.803,7.857-9.995,17.201-8.825c7.426,0.93,7.701,9.206,7.709,10.166
		c0,1.867,1.504,3.386,3.379,3.394c0,0,0.006,0,0.016,0C328.929,67.084,330.446,65.572,330.462,63.705z"/>
	<path fill="#221E1F" d="M331.058,117.088c-0.785,0-1.562-0.113-2.311-0.328c-4.49-1.268-7.121-5.962-5.85-10.46l16.67-59.133
		c1.023-3.641,4.373-6.184,8.158-6.184c0.777,0,1.557,0.109,2.311,0.319c4.49,1.272,7.121,5.962,5.857,10.464l-16.676,59.138
		C338.192,114.545,334.843,117.088,331.058,117.088z"/>
	<path fill="#FFFFFF" d="M348.649,46.201c-1.803-0.513-3.676,0.538-4.186,2.342l-16.668,59.141c-0.51,1.8,0.537,3.674,2.34,4.184
		c0.311,0.086,0.617,0.129,0.922,0.129c1.482,0,2.85-0.977,3.262-2.469l16.67-59.142C351.497,48.583,350.45,46.705,348.649,46.201z"
		/>
	<path fill="#221E1F" d="M371.11,116.474c-8.953,0-16.721-3.691-21.865-10.392c-5.836-7.6-7.506-18.246-4.578-29.195
		c5.291-19.744,23.711-35.203,41.934-35.203c11.977,0,21.617,6.521,25.789,17.451c0.814,2.114,0.742,4.414-0.182,6.484
		c-0.924,2.068-2.594,3.652-4.715,4.461c-0.961,0.375-1.984,0.561-3.023,0.561c-3.496,0-6.672-2.19-7.922-5.453
		c-1.635-4.28-5.07-6.543-9.947-6.543c-10.557,0-22.264,10.357-25.547,22.627c-1.557,5.816-0.959,11.099,1.648,14.485
		c1.912,2.495,4.744,3.756,8.408,3.756c5.93,0,12.533-3.462,17.65-8.849h-4.121c-4.672,0-8.48-3.809-8.48-8.481
		c0-4.679,3.809-8.479,8.48-8.479h20.775c2.629,0,5.15,1.246,6.75,3.343c1.592,2.101,2.121,4.872,1.408,7.411l-7.004,25.223
		c-1.018,3.654-4.375,6.213-8.168,6.213c-0.762,0-1.533-0.11-2.273-0.32c-2.559-0.709-4.52-2.521-5.5-4.785
		C384.421,114.468,377.692,116.474,371.11,116.474z"/>
	<path fill="#FFFFFF" d="M405.407,78.791H384.64c-1.875,0-3.393,1.514-3.393,3.389c0,1.871,1.518,3.39,3.393,3.39h13.994
		c-5.848,11.066-17.082,19.03-27.523,19.03c-5.254,0-9.562-1.987-12.441-5.743c-3.574-4.654-4.498-11.551-2.535-18.903
		c3.91-14.555,17.57-26.399,30.467-26.399c6.963,0,12.324,3.575,14.701,9.816c0.676,1.752,2.631,2.63,4.381,1.955
		c1.744-0.669,2.623-2.631,1.955-4.374c-3.387-8.88-11.256-14.185-21.037-14.185c-15.768,0-32.371,14.101-37.014,31.435
		c-2.521,9.41-1.17,18.441,3.697,24.785c4.15,5.418,10.486,8.393,17.826,8.393c9.314,0,18.834-4.752,26.086-12.312l-2.064,7.43
		c-0.508,1.803,0.553,3.67,2.355,4.172c0.305,0.086,0.609,0.13,0.908,0.13c1.488,0,2.855-0.987,3.27-2.489l7.012-25.229
		c0.283-1.017,0.08-2.113-0.566-2.961C407.462,79.284,406.468,78.791,405.407,78.791z"/>
	<path fill="#221E1F" d="M448.497,117.088c-0.785,0-1.562-0.113-2.311-0.328c-4.49-1.268-7.121-5.962-5.85-10.46l3.932-13.943
		h-18.225l-5.094,18.042c-1.025,3.641-4.375,6.184-8.16,6.184c-0.777,0-1.557-0.108-2.318-0.327
		c-4.482-1.264-7.107-5.962-5.842-10.456l16.676-59.141c1.025-3.633,4.375-6.176,8.16-6.176c0.777,0,1.555,0.108,2.311,0.32
		c4.49,1.271,7.113,5.965,5.85,10.462l-6.803,24.129h18.225l7.951-28.227c1.023-3.641,4.381-6.184,8.16-6.184
		c0.783,0,1.561,0.105,2.316,0.319c4.49,1.272,7.115,5.962,5.85,10.46l-16.67,59.137
		C455.632,114.545,452.274,117.088,448.497,117.088z"/>
	<path fill="#FFFFFF" d="M466.081,46.201c-1.795-0.513-3.678,0.538-4.178,2.342l-9.004,31.939h-28.797l8.625-30.598
		c0.51-1.803-0.545-3.677-2.346-4.186c-1.795-0.508-3.678,0.538-4.178,2.347l-16.676,59.142c-0.51,1.794,0.537,3.673,2.338,4.181
		c0.312,0.084,0.617,0.128,0.924,0.128c1.482,0,2.848-0.975,3.262-2.475l6.141-21.752h28.789l-5.754,20.418
		c-0.51,1.799,0.545,3.674,2.346,4.183c0.307,0.091,0.611,0.126,0.924,0.126c1.482,0,2.84-0.977,3.262-2.469l16.67-59.142
		C468.937,48.583,467.884,46.705,466.081,46.201z"/>
	<path fill="#221E1F" d="M525.323,116.619c-3.35,0-6.777-0.57-9.678-1.6c-5.959-1.736-16.08-9.496-13.115-27.023
		c0.689-4.092,4.191-7.066,8.334-7.066c0.486,0,0.973,0.04,1.461,0.12c2.209,0.378,4.162,1.599,5.471,3.444
		c1.314,1.849,1.83,4.098,1.453,6.329c-0.893,5.318,0.414,7.499,1.287,7.949c0.217,0.065,0.441,0.138,0.66,0.222l0,0
		c0,0,1.824,0.643,4.215,0.643c4.316,0,7.514-1.99,9.787-6.067c1.439-2.591,1.279-3.626,1.279-3.634
		c-0.814-1.67-7.826-3.813-10.137-4.525l-1.424-0.437c-7.949-2.478-11.641-7.441-13.355-11.169c-2.295-5.028-2.295-10.936,0-16.2
		c3.4-7.793,11.852-16.121,25.396-16.121c1.35,0,2.754,0.087,4.148,0.254c8.77,1.101,18.172,8.448,18.107,21.988
		c-0.021,4.65-3.822,8.439-8.48,8.439c-4.693-0.018-8.479-3.825-8.479-8.479c0-1.087-0.254-4.737-3.256-5.119
		c-0.668-0.08-1.33-0.124-1.969-0.124c-6.982,0-9.482,4.949-9.926,5.941c-0.363,0.839-0.406,1.732-0.117,2.368
		c0.508,1.115,2.072,1.747,2.965,2.03l1.346,0.415c6.857,2.089,17.213,5.254,20.918,14.442c2.209,5.481,1.469,11.593-2.201,18.177
		C542.843,114.693,531.472,116.619,525.323,116.619z"/>
	<path fill="#FFFFFF" d="M540.476,46.796c-13.051-1.621-21.227,5.896-24.25,12.848c-1.721,3.945-1.729,8.335-0.035,12.047
		c1.271,2.782,4.084,6.507,10.217,8.422l1.416,0.436c4.977,1.519,11.801,3.604,13.385,7.532c0.793,1.986,0.268,4.661-1.57,7.96
		c-6.924,12.44-19.691,7.909-20.221,7.717c-0.125-0.044-0.256-0.087-0.393-0.123c-0.072-0.015-6.795-1.795-4.797-13.661
		c0.32-1.846-0.93-3.597-2.775-3.906c-1.867-0.326-3.598,0.931-3.916,2.78c-2.391,14.19,5.152,20.103,9.664,21.319
		c2.086,0.77,4.939,1.361,8.123,1.361c6.758,0,14.963-2.691,20.244-12.188c2.885-5.174,3.531-9.817,1.934-13.792
		c-2.797-6.942-11.408-9.569-17.693-11.488l-1.381-0.421c-2.965-0.932-5.059-2.58-6.068-4.775c-0.893-1.961-0.871-4.337,0.088-6.518
		c2.084-4.799,7.861-9.991,17.191-8.825c7.436,0.934,7.695,9.21,7.703,10.163c0,1.867,1.512,3.387,3.379,3.39
		c0.008,0,0.014,0,0.014,0c1.875,0,3.387-1.509,3.402-3.368C554.142,58.443,551.323,48.154,540.476,46.796z"/>
	<path fill="#221E1F" d="M479.261,116.143c-0.805,0-1.604-0.112-2.375-0.345c-2.164-0.625-3.967-2.071-5.057-4.056
		c-1.092-1.99-1.338-4.279-0.705-6.452l13.66-46.847h-10.266c-4.674,0-8.482-3.811-8.482-8.483c0-4.676,3.809-8.483,8.482-8.483
		h40.697c4.68,0,8.48,3.807,8.48,8.483c0,4.672-3.801,8.483-8.48,8.483h-12.773l-15.035,51.592
		C486.354,113.628,483.005,116.143,479.261,116.143z"/>
	<path fill="#FFFFFF" d="M515.216,53.35c1.867,0,3.395-1.519,3.395-3.39c0-1.878-1.527-3.394-3.395-3.394h-40.697
		c-1.877,0-3.395,1.515-3.395,3.394c0,1.871,1.518,3.39,3.395,3.39h17.047l-15.559,53.365c-0.529,1.794,0.508,3.68,2.305,4.2
		c0.318,0.098,0.631,0.146,0.949,0.146c1.469,0,2.828-0.963,3.258-2.449l16.117-55.257L515.216,53.35L515.216,53.35z"/>
	<g>
		<path fill="#FFFFFF" d="M41.383,112.83c-0.628,0-1.263-0.172-1.827-0.539c-1.577-1.014-2.035-3.105-1.021-4.682l49.738-77.445
			c0.769-1.2,2.208-1.789,3.606-1.472c1.388,0.315,2.436,1.463,2.609,2.888l9.655,77.441c0.232,1.86-1.083,3.553-2.944,3.782
			c-1.855,0.247-3.553-1.082-3.786-2.942L88.917,41.71l-44.678,69.567C43.59,112.273,42.499,112.83,41.383,112.83z"/>
	</g>
	<g>
		<g>
			<path fill="#FFFFFF" d="M204.063,107.325c-0.495,0-0.989-0.065-1.475-0.212c-2.937-0.813-4.659-3.85-3.836-6.778l23.564-84.792
				c0.814-2.936,3.851-4.65,6.787-3.84c2.936,0.817,4.65,3.854,3.837,6.791l-23.573,84.791
				C208.691,105.719,206.475,107.325,204.063,107.325z"/>
		</g>
		<g>
			<g>
				<g>
					<path fill="#FFFFFF" d="M180.069,41.703c-1.024,0-1.983-0.618-2.369-1.636l-0.306-0.788c-0.508-1.312,0.146-2.783,1.461-3.288
						c1.308-0.501,2.783,0.152,3.284,1.461l0.306,0.798c0.501,1.309-0.152,2.781-1.461,3.285
						C180.679,41.652,180.375,41.703,180.069,41.703z"/>
				</g>
				<g>
					<path fill="#FFFFFF" d="M200.292,94.504c-1.025,0-1.992-0.621-2.376-1.639l-0.574-1.505c-0.5-1.312,0.152-2.79,1.461-3.284
						c1.314-0.505,2.79,0.152,3.284,1.468l0.581,1.505c0.502,1.314-0.152,2.789-1.467,3.287
						C200.901,94.453,200.589,94.504,200.292,94.504z M196.244,83.941c-1.024,0-1.99-0.617-2.368-1.635l-0.581-1.504
						c-0.502-1.315,0.152-2.791,1.467-3.288c1.316-0.505,2.783,0.156,3.285,1.465l0.574,1.511c0.501,1.314-0.152,2.783-1.461,3.285
						C196.854,83.895,196.55,83.941,196.244,83.941z M192.204,73.383c-1.025,0-1.991-0.616-2.376-1.635l-0.582-1.511
						c-0.502-1.308,0.16-2.782,1.476-3.284c1.3-0.505,2.783,0.152,3.284,1.468l0.574,1.511c0.502,1.309-0.152,2.784-1.467,3.285
						C192.814,73.328,192.509,73.383,192.204,73.383z M188.156,62.826c-1.024,0-1.983-0.625-2.375-1.639l-0.574-1.508
						c-0.502-1.308,0.152-2.784,1.467-3.284c1.309-0.509,2.783,0.152,3.285,1.467l0.582,1.505c0.5,1.308-0.16,2.783-1.469,3.287
						C188.767,62.771,188.462,62.826,188.156,62.826z M184.117,52.26c-1.025,0-1.992-0.614-2.376-1.631l-0.581-1.507
						c-0.501-1.316,0.159-2.788,1.468-3.285c1.308-0.513,2.783,0.152,3.284,1.461l0.583,1.511c0.501,1.315-0.154,2.787-1.461,3.285
						C184.726,52.209,184.414,52.26,184.117,52.26z"/>
				</g>
				<g>
					<path fill="#FFFFFF" d="M204.063,104.349c-1.032,0-1.992-0.612-2.376-1.63l-0.306-0.8c-0.508-1.309,0.153-2.779,1.468-3.278
						c1.308-0.515,2.776,0.154,3.285,1.462l0.305,0.8c0.502,1.307-0.152,2.783-1.467,3.279
						C204.672,104.299,204.361,104.349,204.063,104.349z"/>
				</g>
			</g>
		</g>
		<g>
			<path fill="#FFFFFF" d="M156.257,120.543c-0.029,0-0.051,0-0.087,0c-2.653-0.037-4.956-1.832-5.639-4.396l-18.013-67.025
				l-12.263,37.451c-0.802,2.434-3.074,4.083-5.642,4.083H74.294c-3.279,0-5.937-2.659-5.937-5.937c0-3.276,2.658-5.937,5.937-5.937
				h36.018l17.131-52.295c0.817-2.496,3.197-4.164,5.802-4.084c2.624,0.073,4.89,1.86,5.573,4.393l17.774,66.183l15.913-52.663
				c0.945-3.14,4.258-4.909,7.398-3.968c3.131,0.952,4.911,4.265,3.967,7.396l-21.922,72.581
				C161.191,118.834,158.873,120.543,156.257,120.543z"/>
		</g>
		<g>
			<path fill="#FFFFFF" d="M228.267,28.834c-6.555,0-11.888-5.331-11.888-11.873c0-6.547,5.333-11.871,11.888-11.871
				c6.562,0,11.888,5.323,11.888,11.871C240.155,23.507,234.828,28.834,228.267,28.834z M228.267,11.874
				c-2.812,0-5.107,2.282-5.107,5.087c0,2.804,2.296,5.086,5.107,5.086c2.812,0,5.108-2.282,5.108-5.086
				C233.375,14.155,231.079,11.874,228.267,11.874z"/>
			<path fill="#1F58A6" d="M228.267,8.484c4.694,0,8.495,3.796,8.495,8.477c0,4.678-3.801,8.479-8.495,8.479
				c-4.694,0-8.494-3.801-8.494-8.479C219.772,12.281,223.572,8.484,228.267,8.484z"/>
		</g>
	</g>
	<g>
		<path fill="#FFFFFF" d="M230.251,109.447c-0.306,0-0.611-0.045-0.924-0.129c-1.801-0.508-2.848-2.385-2.339-4.184l15.782-55.89
			c0.4-1.402,1.65-2.398,3.103-2.466c1.453-0.04,2.798,0.802,3.321,2.162l17.555,45.357l12.775-47.21
			c0.486-1.802,2.361-2.87,4.162-2.383c1.803,0.488,2.871,2.351,2.385,4.156l-15.477,57.201c-0.385,1.417-1.637,2.427-3.097,2.504
			c-1.512,0.082-2.812-0.797-3.343-2.163L246.535,60.86l-13.021,46.124C233.092,108.473,231.733,109.447,230.251,109.447z"/>
	</g>
	<g>
		<g>
			<path fill="#FFFFFF" d="M8.484,113.4c-0.301,0-0.601-0.048-0.906-0.131c-1.804-0.499-2.865-2.365-2.361-4.175l21.864-78.699
				c0.409-1.467,1.742-2.485,3.267-2.485h42.25c1.875,0,3.393,1.519,3.393,3.394c0,1.867-1.518,3.39-3.393,3.39H32.923
				l-21.172,76.212C11.334,112.411,9.97,113.392,8.484,113.4z"/>
		</g>
		<g>
			<path fill="#FFFFFF" d="M50.551,65.217H26.809c-1.873,0-3.394-1.52-3.394-3.387c0-1.875,1.521-3.394,3.394-3.394h23.739
				c1.871,0,3.395,1.519,3.395,3.394S52.422,65.217,50.551,65.217z"/>
		</g>
	</g>
	<g>
		<path fill="#FFFFFF" d="M301.644,111.533c-3.17,0-6.023-0.598-8.117-1.36c-4.504-1.22-12.047-7.136-9.656-21.322
			c0.311-1.843,2.062-3.093,3.908-2.779c1.846,0.312,3.088,2.063,2.783,3.908c-2.006,11.866,4.723,13.643,4.789,13.661
			c0.139,0.032,0.27,0.072,0.398,0.119c0.523,0.193,13.299,4.713,20.217-7.713c1.844-3.299,2.367-5.977,1.57-7.959
			c-1.586-3.928-8.402-6.021-13.387-7.536l-1.41-0.439c-6.146-1.911-8.951-5.631-10.223-8.422
			c-1.701-3.712-1.686-8.102,0.037-12.047c3.021-6.948,11.189-14.489,24.254-12.844c10.834,1.355,13.662,11.651,13.654,16.906
			c-0.016,1.875-1.533,3.379-3.393,3.379c-0.01,0-0.01,0-0.016,0c-1.875-0.008-3.379-1.522-3.379-3.394
			c-0.014-0.952-0.283-9.236-7.709-10.158c-9.354-1.17-15.102,4.022-17.201,8.821c-0.943,2.18-0.98,4.559-0.078,6.518
			c1.002,2.194,3.102,3.845,6.066,4.768l1.381,0.428c6.285,1.919,14.895,4.549,17.693,11.488c1.598,3.982,0.953,8.618-1.941,13.791
			C316.612,108.84,308.409,111.533,301.644,111.533z"/>
	</g>
	<g>
		<path fill="#FFFFFF" d="M331.058,111.996c-0.305,0-0.611-0.043-0.922-0.129c-1.803-0.51-2.85-2.381-2.34-4.187l16.668-59.14
			c0.51-1.802,2.383-2.856,4.186-2.34c1.795,0.504,2.848,2.382,2.34,4.185l-16.67,59.134
			C333.907,111.02,332.54,111.996,331.058,111.996z"/>
	</g>
	<g>
		<g>
			<path fill="#FFFFFF" d="M371.11,111.384c-7.34,0-13.67-2.983-17.826-8.4c-4.867-6.333-6.219-15.372-3.697-24.782
				c4.635-17.334,21.246-31.428,37.014-31.428c9.781,0,17.65,5.305,21.037,14.17c0.668,1.755-0.211,3.717-1.955,4.382
				c-1.75,0.669-3.713-0.203-4.381-1.958c-2.383-6.235-7.738-9.807-14.701-9.807c-12.896,0-26.564,11.842-30.467,26.396
				c-1.963,7.358-1.047,14.25,2.529,18.9c2.885,3.759,7.193,5.747,12.447,5.747c11.559,0,24.131-9.759,29.24-22.708
				c0.689-1.739,2.658-2.594,4.402-1.907c1.744,0.691,2.594,2.66,1.912,4.403C400.487,100.029,385.532,111.384,371.11,111.384z"/>
		</g>
		<g>
			<path fill="#FFFFFF" d="M398.396,110.798c-0.299,0-0.611-0.044-0.908-0.126c-1.803-0.506-2.863-2.373-2.361-4.176l5.818-20.927
				H384.64c-1.875,0-3.393-1.519-3.393-3.394s1.518-3.385,3.393-3.385h20.768c1.061,0,2.062,0.493,2.703,1.344
				c0.646,0.838,0.85,1.932,0.566,2.956l-7.012,25.222C401.243,109.814,399.884,110.798,398.396,110.798z"/>
		</g>
	</g>
	<g>
		<g>
			<path fill="#FFFFFF" d="M412.79,111.496c-0.307,0-0.611-0.044-0.924-0.131c-1.801-0.514-2.848-2.384-2.338-4.189l16.668-59.13
				c0.508-1.802,2.391-2.86,4.186-2.347c1.801,0.509,2.855,2.38,2.346,4.186l-16.676,59.133
				C415.638,110.514,414.272,111.496,412.79,111.496z"/>
		</g>
		<g>
			<path fill="#FFFFFF" d="M448.497,111.996c-0.305,0-0.611-0.043-0.924-0.129c-1.801-0.51-2.855-2.381-2.346-4.187l16.668-59.14
				c0.508-1.802,2.385-2.856,4.186-2.34c1.803,0.504,2.855,2.382,2.348,4.185l-16.67,59.134
				C451.337,111.02,449.979,111.996,448.497,111.996z"/>
		</g>
		<g>
			<path fill="#FFFFFF" d="M454.163,87.262h-33.918c-1.869,0-3.387-1.514-3.387-3.385c0-1.875,1.518-3.395,3.387-3.395h33.918
				c1.877,0,3.395,1.52,3.395,3.395C457.558,85.748,456.04,87.262,454.163,87.262z"/>
		</g>
	</g>
	<g>
		<path fill="#FFFFFF" d="M525.323,111.533c-3.174,0-6.031-0.598-8.123-1.36c-4.506-1.224-12.047-7.136-9.656-21.331
			c0.311-1.845,2.041-3.098,3.908-2.775c1.846,0.31,3.088,2.061,2.783,3.906c-2.006,11.869,4.723,13.646,4.789,13.661
			c0.137,0.036,0.268,0.079,0.398,0.123c0.523,0.196,13.299,4.716,20.215-7.717c1.848-3.296,2.371-5.979,1.57-7.96
			c-1.584-3.932-8.408-6.014-13.385-7.532l-1.41-0.439c-6.139-1.907-8.943-5.627-10.223-8.418
			c-1.693-3.712-1.686-8.108,0.035-12.052c3.023-6.946,11.199-14.463,24.25-12.843c10.848,1.358,13.674,11.655,13.652,16.909
			c-0.008,1.867-1.52,3.379-3.395,3.379c0,0-0.006,0-0.014,0c-1.867-0.014-3.379-1.533-3.379-3.397
			c-0.008-0.956-0.268-9.232-7.703-10.158c-9.336-1.171-15.107,4.025-17.191,8.825c-0.951,2.18-0.98,4.559-0.088,6.518
			c1.004,2.191,3.104,3.845,6.068,4.768l1.381,0.425c6.277,1.922,14.889,4.545,17.686,11.484c1.605,3.981,0.951,8.618-1.926,13.798
			C540.286,108.836,532.081,111.533,525.323,111.533z"/>
	</g>
	<g>
		<g>
			<path fill="#FFFFFF" d="M479.261,111.053c-0.318,0-0.631-0.04-0.949-0.138c-1.797-0.521-2.834-2.406-2.305-4.204l16.203-55.577
				c0.531-1.795,2.414-2.83,4.201-2.303c1.809,0.519,2.834,2.405,2.311,4.203l-16.213,55.574
				C482.089,110.09,480.729,111.053,479.261,111.053z"/>
		</g>
		<g>
			<path fill="#FFFFFF" d="M515.216,53.35h-40.697c-1.877,0-3.395-1.519-3.395-3.39c0-1.878,1.518-3.394,3.395-3.394h40.697
				c1.867,0,3.395,1.515,3.395,3.394C518.61,51.832,517.091,53.35,515.216,53.35z"/>
		</g>
	</g>
</g>
</svg>
